<?xml version="1.0" encoding="utf-8"?>
<!-- Generator: Adobe Illustrator 26.0.1, SVG Export Plug-In . SVG Version: 6.00 Build 0)  -->
<svg version="1.1" id="Layer_1" xmlns="http://www.w3.org/2000/svg" xmlns:xlink="http://www.w3.org/1999/xlink" x="0px" y="0px"
	 viewBox="0 0 864 495" style="enable-background:new 0 0 864 495;" xml:space="preserve">
<style type="text/css">
	.st0{fill:url(#SVGID_1_);}
	.st1{fill:#333333;}
</style>
<g>
	<linearGradient id="SVGID_1_" gradientUnits="userSpaceOnUse" x1="2.8666" y1="149" x2="859.6465" y2="149">
		<stop  offset="0" style="stop-color:#0678BE"/>
		<stop  offset="1" style="stop-color:#B06AB3"/>
	</linearGradient>
	<path class="st0" d="M20,273.5c9.6-20.2,20.2-39.9,31.6-59.2c11.5-19.3,24-38,37.7-56c0.9-1.1,1.7-2.3,2.6-3.4l2.7-3.3
		c1.8-2.2,3.5-4.4,5.3-6.6c3.7-4.3,7.3-8.8,11.1-13c3.7-4.3,7.7-8.4,11.7-12.6c4.1-4.1,8.1-8.2,12.4-12.1
		c8.4-7.9,17.4-15.4,26.9-22.3c9.5-6.9,19.6-13.3,30.4-18.7c10.8-5.4,22.2-9.9,34.2-13c1.5-0.4,3-0.7,4.5-1.1c1.5-0.3,3-0.7,4.6-1
		c3.1-0.5,6.1-1.1,9.3-1.5c6.2-0.9,12.5-1.2,18.8-1.3c6.3-0.1,12.7,0.4,19,1.2c6.3,0.8,12.6,2.1,18.7,3.7c12.3,3.3,24,8.2,34.8,14.1
		c10.9,5.9,20.9,12.8,30.3,20.1c9.4,7.3,18.1,15.1,26.5,23c16.7,15.9,32,32.3,47.3,47.8c7.6,7.8,15.3,15.3,23.1,22.5
		c7.8,7.2,15.7,13.9,23.9,19.9c16.4,12.1,33.9,21.4,52.5,26c18.6,4.7,38.4,4.6,57.8,0.7c9.7-2,19.4-5,28.9-8.8
		c9.5-3.7,18.9-8.3,28-13.5c9.1-5.2,18.1-10.9,26.9-17c4.3-3.2,8.7-6.2,12.9-9.6c2.1-1.7,4.3-3.2,6.4-5l6.3-5.1
		c2.1-1.7,4.1-3.5,6.2-5.2c2.1-1.8,4.2-3.5,6.2-5.3l6.1-5.4l3-2.7l3-2.8l6-5.6c2-1.9,3.9-3.8,5.9-5.7c2-1.9,3.9-3.8,5.9-5.7l5.8-5.9
		c3.9-3.9,7.7-7.9,11.5-11.8c3.8-3.9,7.5-8.1,11.3-12.1c3.8-4,7.4-8.2,11.1-12.3c3.7-4.1,7.3-8.3,11-12.5
		c14.5-16.7,28.7-33.9,42.9-51.1c-10.5,19.7-21.9,39-34,57.8c-12.1,18.8-25.1,37.2-39,55c-14,17.7-28.9,34.9-45.2,50.9
		c-8.1,8.1-16.7,15.7-25.6,23.1c-9,7.3-18.3,14.4-28.1,20.8c-9.8,6.4-20.2,12.3-31,17.4c-10.9,5.1-22.3,9.3-34.2,12.3
		c-23.8,6.3-49.6,7.2-74.4,2c-6.2-1.3-12.3-3-18.2-5.1c-5.9-2.1-11.7-4.5-17.4-7.1c-5.6-2.7-11-5.6-16.3-8.8
		c-5.2-3.2-10.3-6.5-15.2-10c-9.8-7-18.9-14.6-27.6-22.4c-8.6-7.8-16.8-15.9-24.8-24c-7.9-8.1-15.6-16.2-23.2-24.2
		c-7.6-8-15.2-15.8-22.8-23.3c-15.3-15-31.1-28.6-48.1-38.6c-8.5-5-17.3-9-26.4-11.9c-4.6-1.4-9.2-2.5-13.9-3.4
		c-4.7-0.8-9.4-1.4-14.2-1.6c-19.2-0.9-38.8,3.3-57.6,11.2c-9.4,4-18.6,8.7-27.5,14.2c-8.9,5.5-17.6,11.7-26,18.2
		c-4.3,3.2-8.3,6.7-12.5,10.2c-4,3.6-8.1,7.1-12.1,10.8c-4,3.6-7.9,7.4-11.8,11.2c-1.9,1.9-3.8,3.9-5.8,5.8
		c-1.9,1.9-3.8,3.9-5.7,5.9c-15.1,15.8-29.5,32.5-43.5,49.7C46.8,237.9,33.4,255.6,20,273.5z"/>
</g>
<g>
	<path class="st1" d="M137,423.6c-6.3,0-12.2-0.7-17.7-2.2c-5.5-1.5-10.6-3.4-15.3-5.7v-27.9c4.5,3.1,8.9,5.7,13.1,7.9
		c4.2,2.2,8.5,3.3,13.1,3.3c7.3,0,12.9-1.9,16.8-5.6c3.9-3.7,5.8-9.8,5.8-18.2V274.5h29.9v102.3c0,9.2-1.4,16.9-4.1,23
		c-2.7,6.1-6.3,10.9-10.7,14.4c-4.4,3.5-9.3,6-14.7,7.4C147.8,422.9,142.4,423.6,137,423.6z"/>
	<path class="st1" d="M256.2,424.5c-6.3,0-12.2-0.6-17.8-1.8c-5.6-1.2-10.6-3.2-15-5.9c-4.4-2.8-7.9-6.6-10.5-11.3
		c-2.6-4.8-3.9-10.7-3.9-17.7c0-7.6,1.5-14,4.6-19.2c3.1-5.2,7.6-9.2,13.5-11.9c5.9-2.7,13.2-4.1,21.9-4.1c5.3,0,10.2,0.5,14.7,1.4
		c4.5,1,8.7,2.3,12.3,4c3.7,1.7,6.7,3.5,9,5.4l2,15.6c-3.1-2.1-7-3.7-11.8-5c-4.8-1.2-9.9-1.9-15.5-1.9c-7.8,0-13.6,1.2-17.4,3.7
		c-3.8,2.5-5.7,6.4-5.7,11.7c0,3.5,1,6.5,3.1,9c2.1,2.5,4.7,4.3,7.9,5.5c3.2,1.2,6.6,1.8,10.1,1.8c8.1,0,13.9-0.5,17.5-1.7
		c3.6-1.1,5.4-3.5,5.4-7.1v-43.6c0-7.2-2.3-12.4-6.8-15.7c-4.5-3.3-10.9-5-19.1-5c-6.3,0-12.8,1.1-19.4,3.2
		c-6.6,2.1-12,4.9-16.1,8.2v-25.3c4-2.6,9.9-4.9,17.8-6.7c7.9-1.8,16.4-2.8,25.5-2.8c3.8,0,7.8,0.3,12.1,1c4.3,0.7,8.4,1.8,12.3,3.4
		c4,1.6,7.6,3.9,10.8,6.8c3.2,2.9,5.8,6.6,7.7,10.9c1.9,4.3,2.9,9.6,2.9,15.7l-0.2,52.6c0,6.7-2.2,12.1-6.5,16
		c-4.3,3.9-10.4,6.6-18.3,8.2C275.8,423.7,266.6,424.5,256.2,424.5z"/>
	<path class="st1" d="M371.9,424.5c-7.9,0-14.7-0.8-20.2-2.5c-5.6-1.7-10.9-3.7-16.1-6v-25.3c3.4,2.2,6.9,4.3,10.7,6.3
		c3.7,2,7.8,3.6,12.1,4.7c4.3,1.2,9.1,1.8,14.2,1.8c5.7,0,10-1.1,12.9-3.3c2.9-2.2,4.3-5,4.3-8.4c0-2.9-1.1-5.2-3.3-6.9
		c-2.2-1.7-5.1-3.1-8.6-4.3c-3.5-1.2-7.3-2.3-11.2-3.5c-3.7-0.9-7.4-2.1-11.1-3.5c-3.7-1.5-7.1-3.4-10.2-5.9
		c-3.1-2.5-5.5-5.7-7.4-9.6c-1.8-3.9-2.8-8.6-2.8-14.2c0-6.6,1.3-12.2,4-16.7c2.6-4.5,6.1-8.2,10.4-11.1c4.3-2.9,9-4.9,14.1-6.2
		c5.1-1.2,10-1.8,14.9-1.7c8.5,0.1,15.3,1.1,20.5,2.9c5.1,1.8,10,3.9,14.5,6.4v22.9c-5.1-2.8-10.1-5.3-14.9-7.6
		c-4.8-2.3-10.3-3.4-16.6-3.4c-5.7,0-10.2,1-13.3,3c-3.2,2-4.7,4.7-4.7,8.2c0,3.1,1,5.5,2.9,7.4c1.9,1.8,4.4,3.3,7.6,4.4
		c3.2,1.1,6.6,2.2,10.2,3.2c3.7,1,7.4,2.2,11.3,3.4c3.9,1.2,7.6,3,11,5.3c3.4,2.3,6.2,5.4,8.4,9.3c2.1,4,3.2,9.1,3.2,15.4
		c-0.1,8.7-2.5,15.6-6.9,20.8c-4.5,5.2-10.2,9-17.3,11.3C387.3,423.3,379.9,424.5,371.9,424.5z"/>
	<path class="st1" d="M499.1,424.3c-2.5,0-5.8-0.3-10-0.8c-4.2-0.5-8.4-1.5-12.8-3c-4.3-1.5-8-3.6-11.1-6.4l6.2-9v58.1h-27.5V332.8
		c0-4.7,1.4-8.7,4.3-11.9c2.9-3.2,6.7-5.9,11.4-7.9c4.8-2.1,10.2-3.6,16.2-4.5c6-1,12.2-1.4,18.7-1.4c10.4,0,19.8,1.9,28,5.6
		c8.3,3.7,14.8,10,19.6,18.7c4.8,8.7,7.2,20.7,7.2,36c0,11.4-2,21.5-5.9,30s-9.6,15.2-17,19.9C518.9,421.9,509.8,424.3,499.1,424.3z
		 M492.3,401.4c6.5,0,11.8-1.2,16.1-3.7c4.3-2.5,7.4-6.3,9.6-11.4c2.1-5.1,3.2-11.7,3.2-19.8c0-7-0.8-13.2-2.3-18.6
		c-1.5-5.4-4.3-9.5-8.4-12.5c-4-3-9.7-4.5-17-4.5c-7.2,0-12.7,0.7-16.4,2.2c-3.7,1.5-5.6,3.5-5.6,6.2v56.8c3.4,1.9,6.9,3.3,10.6,4.2
		C485.6,401,489.1,401.4,492.3,401.4z"/>
	<path class="st1" d="M623.2,424.5c-11,0-20.6-2.3-28.9-6.8c-8.3-4.5-14.7-11.1-19.2-19.7c-4.5-8.6-6.8-19-6.8-31.1
		c0-19.4,4.7-34.2,14-44.4c9.3-10.3,22.5-15.4,39.5-15.4c12,0,21.8,2.6,29.3,7.9c7.5,5.3,12.9,12.8,16.3,22.7c3.4,9.8,5,21.5,4.8,35
		h-85.8l-2-18.9h65.6l-5.3,7.9c-0.3-11.6-2.3-19.9-6-25c-3.7-5.1-9.7-7.6-17.9-7.6c-5,0-9.3,1.1-13,3.4c-3.7,2.3-6.5,6-8.5,11.3
		c-2,5.3-3,12.5-3,21.8c0,11.4,2.7,20.2,8,26.2c5.4,6,13.6,9,24.8,9c4.5,0,8.9-0.4,13.1-1.3c4.2-0.9,8.1-2,11.7-3.4
		c3.6-1.4,6.7-2.7,9.4-3.8V417c-5.3,2.2-11.1,4-17.6,5.4C638.9,423.8,631.5,424.5,623.2,424.5z"/>
	<path class="st1" d="M696.9,421.2V321.1c2.1-1.5,5.7-3.3,10.9-5.4c5.2-2.1,11.3-4,18.2-5.7c6.9-1.7,13.9-2.5,20.9-2.5
		c5.3,0,9.5,0.4,12.7,1.2c3.2,0.8,5.7,1.8,7.6,3v21.1c-2.9-0.4-6.3-0.8-10-1.1c-3.7-0.3-7.6-0.4-11.4-0.3c-3.9,0.1-7.6,0.3-11.2,0.5
		c-3.6,0.3-6.8,0.7-9.6,1.1v88.2H696.9z"/>
</g>
</svg>
